<svg fill="none" height="80" viewBox="0 0 80 80" width="80"><g fill="#ffa767"><path d="m40.0288 63.966h9.1726c.9039 0 1.4843-.5502 1.4927-1.3337.0083-.7835-.5737-1.3336-1.4677-1.3636-.1934 0-.3885 0-.5837 0h-11.9261c-.2502 0-.5003.0133-.7505-.01-.7438-.0751-1.2692-.6169-1.2742-1.297-.005-.6802.5187-1.232 1.2575-1.3104.2221-.015.4447-.0183.6671-.01 3.5574 0 7.1147-.0133 10.6737.0117.5703 0 .7705-.1334.7521-.7318-.03-1.1086-.0884-2.2372.0734-3.3258.5154-3.4776 2.465-6.0815 5.2885-8.0437 4.0576-2.8207 7.0529-6.4716 8.9291-11.0443 5.5937-13.6367-2.9202-29.52225-17.3847-32.41129-6.363-1.27698-12.3035-.2056-17.8216 3.21412-.5754.35009-1.1357.61015-1.7745.18338-.4636-.31674-.6004-.77352-.5287-1.31199.0717-.53846.4587-.79519.8639-1.05192 3.4039-2.1672 7.108-3.57254 11.1173-3.96597 9.9448-.975238 18.1785 2.40059 24.3259 10.27747 9.2577 11.8613 6.6176 29.0721-5.637 37.8243-.7005.5001-1.4193.9752-2.0297 1.5887-1.8162 1.8238-3.002 3.911-2.8152 6.5916.0276.3329.0276.6674 0 1.0003-.08.8718.0901 1.4586.9807 2.0004 1.7661 1.0586 2.1914 3.4425 1.094 5.2163-.2818.4551-.3335.7419-.0283 1.2286 1.2475 1.9905.5787 4.4228-1.501 5.5614-.1721.0733-.3177.1973-.4175.3555-.0998.1581-.1491.3429-.1412.5297-.2402 4.4144-3.569 7.5935-8.0052 7.5969-2.2182 0-4.4529.2117-6.6577-.1284-3.7325-.5751-6.4092-3.5909-6.601-7.3768-.025-.5001-.1818-.7652-.6304-1.0152-2.0497-1.1386-2.6684-3.6043-1.3993-5.5897.2752-.4318.2302-.6835-.0216-1.0836-1.5427-2.4623-.1051-5.5747 2.7718-6.0498.984-.1667 1.7294.2667 1.8629 1.0752.1267.7685-.392 1.3337-1.3926 1.5137-.8022.1467-1.2825.6885-1.2492 1.4104.0351.7502.6004 1.2736 1.4593 1.2836 1.556.0184 3.1121 0 4.6697.0084zm.0216 7.9619c-2.4432 0-4.8865.0267-7.3281-.0166-.6671-.01-.7955.215-.7221.8118.3085 2.509 2.5016 4.5295 5.045 4.5695 1.9701.03 3.9409.03 5.9121 0 2.5517-.0417 4.7265-2.0422 5.05-4.5645.0751-.5835-.03-.8335-.7121-.8168-2.4183.0433-4.8332.0166-7.2481.0166zm.0401-5.3346c-3.0264 0-6.0545 0-9.0843 0-1.059 0-1.6677.4751-1.6894 1.3053-.0267.8652.602 1.3987 1.6827 1.3987h18.0018c1.0857 0 1.7161-.5268 1.6911-1.3887-.025-.8335-.6287-1.312-1.6828-1.3136-2.9752-.0045-5.9494-.005-8.9225-.0017z"/><path d="m13.3163 27.272c.1068-6.9817 2.078-12.6314 6.0673-17.55927.1218-.1517.2418-.30508.3769-.44511.5687-.58681 1.2909-.65182 1.8546-.16671.537.45511.617 1.16699.1668 1.79379-.3203.4518-.6922.8669-1.0241 1.312-8.0652 10.8176-5.7354 26.0313 5.2285 33.8682 2.3832 1.7038 4.3578 3.6843 5.4168 6.465.2409.6213.4028 1.2704.482 1.9321.0901.7668-.3085 1.3553-1.0006 1.5004-.1692.0451-.346.0539-.5189.0259-.1728-.0279-.3378-.0921-.4841-.1883s-.2706-.2222-.3647-.3697c-.0942-.1476-.1561-.3134-.1817-.4865-.5537-2.8474-2.2481-4.8529-4.5496-6.5016-7.4599-5.358-11.1723-12.7031-11.4692-21.1802z"/><path d="m31.9918 23.9579c.5288-.0243 1.0568.0631 1.5494.2567.5754.2484.8922.1334 1.2858-.3718.6104-.7955 1.3962-1.4396 2.2962-1.8822.9-.4425 1.89-.6716 2.893-.6693 1.003.0022 1.992.2357 2.89.6823s1.6808 1.0943 2.2876 1.8926c.3652.4684.6354.5651 1.2158.3751 3.2888-1.0753 6.7327 1.302 6.9012 4.7178.045.9019-.432 1.5437-1.1991 1.6121-.7672.0683-1.3342-.4902-1.4126-1.4071-.0951-1.1319-.6555-1.9471-1.6845-2.3772s-2.0013-.2-2.8585.5351c-.974.8336-1.8662.5835-2.3349-.6034-.7071-1.7938-2.088-2.8024-3.8358-2.8007-1.7478.0016-3.0903 1.0002-3.8142 2.8257-.4552 1.1436-1.3625 1.407-2.2848.6134-.8856-.7601-1.8529-1.0169-2.9269-.5584-1.074.4584-1.586 1.317-1.6677 2.4789-.0551.7985-.6505 1.3337-1.3509 1.2987-.7405-.0317-1.2592-.6419-1.2575-1.4804.0033-2.7507 2.4749-5.1396 5.3084-5.1379z"/><path d="m40.0288 51.903c-.3102-1.9788.3185-3.7475 1.0923-5.5363 1.8629-4.2977 3.6207-8.6405 5.4219-12.9632.0898-.233.1917-.4611.3052-.6835.3719-.6768 1.0324-.9185 1.6828-.6301.1559.0607.2978.1526.4171.2699s.2135.2577.2768.4125c.0634.1549.0945.321.0916.4882-.0029.1673-.0398.3322-.1084.4848-.7255 1.8337-1.4876 3.6425-2.2448 5.458-1.3075 3.1224-2.5984 6.2448-3.9326 9.3573-.279.6327-.4151 1.3191-.3986 2.0104.0367 1.2754.0217 2.554 0 3.8343-.0116.9186-.5437 1.5137-1.3092 1.5137s-1.2891-.5985-1.3141-1.5137c-.0101-.4168 0-.8335 0-1.2486s.02-.8369.02-1.2537z"/><path d="m32.0819 31.9665c.6755.06 1.0257.5268 1.2625 1.1836 1.1991 3.3342 2.4216 6.6683 3.634 9.9925.5004 1.3786 1.0124 2.754 1.501 4.1376.3219.9119.0184 1.6354-.7621 1.8988-.7205.2434-1.3709-.1367-1.6995-1.0402-1.7289-4.7345-3.4522-9.4707-5.17-14.2085-.3803-1.0536.1884-1.9805 1.2341-1.9638z"/><path d="m4.72738 23.9562c1.02901 0 2.05635-.015 3.08368 0 .90226.0183 1.50098.5868 1.47597 1.352-.02669.7352-.60707 1.2603-1.47597 1.267-2.11249.0155-4.22498.0155-6.33747 0-.900587 0-1.5009792-.5852-1.47262735-1.352.02501635-.7402.59705635-1.252 1.47262735-1.2653 1.08571-.015 2.16975-.0017 3.25379-.0017z"/><path d="m75.3735 26.5835c-1.0557 0-2.1114.0117-3.1687 0-.9089-.015-1.501-.5668-1.4893-1.3336.015-.7419.587-1.2754 1.4559-1.282 2.1125-.0167 4.225-.0167 6.3375 0 .9106 0 1.501.5668 1.491 1.3336-.01.7669-.6088 1.2737-1.541 1.287-1.029.005-2.0581-.005-3.0854-.005z"/><path d="m77.665 12.1517c-.0228.2526-.1192.4929-.2772.6914-.1579.1985-.3706.3464-.6117.4255-2.0563.7568-4.111 1.522-6.1707 2.2505-.7672.2701-1.481-.0766-1.7145-.7401-.2601-.7369.0517-1.4054.8756-1.7155 2.0013-.7485 4.0026-1.4836 6.0206-2.1888 1.0107-.3568 1.9046.2417 1.8779 1.277z"/><path d="m3.69504 39.7784c-.73548-.0117-1.16743-.3768-1.31753-1.0002-.16677-.6852.14843-1.222.79052-1.4737 1.23914-.4885 2.50163-.9186 3.75078-1.3754.83388-.305 1.65608-.6401 2.50164-.9135.77215-.2501 1.47925.0917 1.70615.7618.2418.7152-.0467 1.3837-.8189 1.6754-2.04968.7752-4.11269 1.5137-6.1707 2.2589-.14455.0378-.29269.0602-.44196.0667z"/><path d="m77.66 38.318c.035.987-.7722 1.6971-1.6277 1.4121-2.1831-.7286-4.3362-1.5287-6.4909-2.3506-.6671-.2567-.909-1.0503-.6354-1.6904.2735-.6402.9639-.9219 1.7611-.6435 1.6227.5685 3.2354 1.1669 4.8515 1.7521.4436.1667.8873.3201 1.3242.5001.2135.0838.4014.2222.5448.4012.1433.179.2373.3924.2724.619z"/><path d="m11.1849 14.2872c.0135.2101-.0261.4203-.1151.6111-.0891.1909-.2247.3562-.3945.4809-.1697.1247-.3681.2047-.5769.2327-.20884.0279-.42132.0029-.61791-.0727-2.12472-.7269-4.23277-1.5004-6.32914-2.3106-.6671-.2567-.96229-.8335-.74382-1.5604.20514-.6902.86057-1.1069 1.57437-.8635 2.16808.7451 4.33616 1.5453 6.4876 2.3539.4769.18.7071.6051.7154 1.1286z"/></g></svg>