<svg fill="none" viewBox="0 0 20 20" xmlns="http://www.w3.org/2000/svg"><path d="m9.1875 8.50009v2.18751h-2.1875c-.21549 0-.42215.0856-.57453.238-.15237.1523-.23797.359-.23797.5745s.0856.4221.23797.5745c.15238.1524.35904.238.57453.238h2.1875v7.3411c-2.47177-.2081-4.7706-1.3566-6.42155-3.2102-1.66593-1.8704-2.542671-4.3133-2.446265-6.8162.096406-2.50289 1.158465-4.87116 2.963335-6.60787 1.80487-1.73672 4.21224-2.706884 6.71698-2.70693 2.5047.000055 4.9121.97023 6.717 2.70694 1.8048 1.73672 2.8669 4.10498 2.9633 6.60786.0964 2.5029-.7804 4.9458-2.4463 6.8162-1.6509 1.8536-3.9497 3.0021-6.4215 3.2102v-7.3411h2.1875c.2155 0 .4221-.0856.5745-.238s.238-.359.238-.5745-.0856-.4222-.238-.5745c-.1524-.1524-.359-.238-.5745-.238h-2.1875v-2.18744c.0004-.38113.152-.74653.4215-1.01604.2695-.2695.6349-.4211 1.0161-.42153h1.4999c.2155 0 .4221-.0856.5745-.23798.1524-.15237.238-.35903.238-.57452s-.0856-.42215-.238-.57453c-.1524-.15237-.359-.23797-.5745-.23797h-1.5-.0001c-.8119.00093-1.5903.32387-2.1644.89799-.57413.57411-.89707 1.35252-.898 2.16444z" fill="#0f2830" stroke="#0f2830" stroke-width=".125"/></svg>