<svg fill="none" height="80" viewBox="0 0 80 80" width="80"><g fill="#8772c1"><path d="m64.7047 23.7328c2.1418.0517 3.945 1.3341 4.6189 3.3602.3336 1.0005.6205 2.0161.8641 3.04.2756 1.0868.1568 2.2361-.3352 3.2436-.492 1.0076-1.3254 1.8081-2.3521 2.2594-.5888.2668-.6856.5186-.5305 1.1189.357 1.3674.6322 2.7565.9141 4.1423.1668.8454-.2251 1.4858-.9775 1.6575-.7239.1668-1.3561-.2734-1.5563-1.1306-.3002-1.2957-.6022-2.5947-.849-3.9021-.1201-.642-.3703-.7054-.9475-.5003-2.1168.7538-4.2536 1.4525-6.3804 2.1779-.5822.1984-1.1477.2651-1.6398-.1968-.7423-.7004-.4203-1.8427.6573-2.2179 2.5405-.8838 5.091-1.7409 7.6381-2.6081.7357-.2484 1.478-.4752 2.2069-.7387 1.3712-.5003 1.925-1.5642 1.5513-2.9683-.1801-.667-.3736-1.334-.5655-2.0011-.5187-1.7959-1.5112-2.3746-3.3111-1.9427-3.2383.7782-6.4766 1.552-9.7149 2.3213-1.0309.2451-1.7182-.0817-1.92-.9022-.1852-.7587.3103-1.3907 1.2778-1.6225 3.3461-.8005 6.6929-1.5981 10.0402-2.393.4287-.095.874-.1301 1.3111-.1968z"/><path d="m70.6814 45.3413h7.6732c.6255 0 1.1677.1267 1.4796.7203.5004.9422-.1802 1.9011-1.3945 1.9061-2.7507.0133-5.5047 0-8.2554 0-1.1193 0-1.1092 0-.9758 1.1523.3536 3.0683.6105 6.1383.2986 9.2283-.1518 1.5009-.3937 2.975-1.1427 4.314-.9908 1.7693-2.7373 2.3013-4.5488 1.3875-.5505-.2785-1.101-.5937-1.4879-1.0589-1.5797-1.8994-3.7899-2.7699-5.9618-3.6687-6.0751-2.5247-12.4356-3.4235-18.9845-3.2718-3.1382.087-6.2697.3398-9.3813.7571-.7206.0934-.8006.2885-.5004.9238 2.1585 4.4441 4.2853 8.9015 6.4188 13.3573 1.1376 2.3746 1.0009 4.6609-.6806 6.7137-2.799 3.4218-8.0502 2.7414-10.0318-1.3008-2.1085-4.314-4.1536-8.658-6.227-12.9887-.5872-1.2273-1.191-2.4463-1.7565-3.682-.1868-.4069-.4087-.5603-.8807-.5586-6.40214.0283-11.43976-3.7654-13.19125-9.9271-.393667-1.3857-.867403-2.7515-1.04422-4.1939-.773991-6.2968 2.72899-12.0049 8.70073-14.1527 5.20444-1.8711 10.37544-3.8171 15.29634-6.3335 5.9634-3.0466 11.4197-6.7653 15.8184-11.8915 1.47-1.7432 2.7907-3.6069 3.9484-5.57133.6155-1.02389.9308-2.11782 1.1326-3.27178.1416-.82317.4467-1.60964.8975-2.31292 1.0008-1.555849 2.5955-2.024437 4.2719-1.25235.9775.448577 1.7665 1.15063 2.4788 1.93772 2.0884 2.30959 3.5964 5.00272 4.9926 7.75086.0861.1522.1396.3207.1569.4948.0173.174-.0019.3498-.0564.516-.0544.1661-.143.3192-.26.4492s-.2598.2343-.4194.306c-.6672.3335-1.3544.115-1.7498-.6254-1.0192-1.91266-2.0501-3.8187-3.3361-5.57299-.7223-.98887-1.4796-1.95273-2.5022-2.65144-.834-.56864-1.1893-.46692-1.5897.46859-.5321 1.24568-.6672 2.57807-.7222 3.91046-.1552 3.45688.1668 6.88878.6972 10.29398 1.7849 11.3228 4.9359 22.2521 9.5999 32.7311 1.4011 3.15 2.9758 6.2117 5.0643 8.9765.6055.8005 1.261 1.5592 2.0901 2.1395.864.602 1.2494.5003 1.6497-.4635.5872-1.4091.6856-2.9133.7406-4.4108.1018-2.7014-.1668-5.3829-.4737-8.0627-.0534-.4753-.2486-.6003-.6906-.5903-1.0008.0233-2.0017.0217-3.0025 0-.8991-.0184-1.5013-.5887-1.473-1.3541.0267-.7371.6072-1.2623 1.4763-1.2657 2.6122-.01 5.2261-.0016 7.8383-.0016zm-26.2189-34.1586c-1.0587 1.4958-2.2033 2.929-3.4279 4.2923-4.7307 5.1511-10.4539 8.9215-16.6809 11.9949-4.7607 2.3512-9.7266 4.2006-14.71083 6.0032-4.38706 1.5909-7.17276 5.5214-7.00596 10.1872.10176 2.8833.85406 5.6948 2.44542 8.1195 2.42372 3.697 5.95337 5.3779 10.36047 4.7275 3.3178-.4902 6.5656-1.4007 9.8851-1.916l3.9783-.6203c-.3636-.2452-.5638-.3819-.7673-.517-2.9508-1.9544-5.0426-4.5975-6.1519-7.9527-.6889-2.0778-1.2861-4.1922-1.7932-6.3201-.6242-2.6385-.4976-5.3989.3654-7.9693.2468-.7604.854-1.1256 1.5179-.9739.734.1668 1.111.7671.9909 1.5826-.0238.136-.0567.2703-.0985.4019-.4754 1.7025-.6839 3.4235-.4337 5.1894.3337 2.3763 1.1343 4.6309 1.8349 6.9088 1.1427 3.7504 3.6048 6.3585 7.1478 8.0044 2.2419 1.0422 4.6222 1.0522 7.0143 1.0789 6.302.0667 12.4405 1.0189 18.3055 3.4302.1668.0683.3336.2351.4904.1134-7.2711-14.3829-11.6549-29.5828-13.2662-45.7649zm-12.4456 62.7008c.0333-.5003-.1418-1.0223-.382-1.5259-2.2853-4.7804-4.5683-9.5607-6.8492-14.3411-.2352-.5003-.5204-.6354-1.0342-.5253-1.8165.3885-3.6314.7821-5.4596 1.1173-.6322.1167-.6089.3335-.3703.8188 1.0359 2.1161 2.0384 4.2506 3.0576 6.3751 1.5463 3.2251 3.0759 6.4585 4.6506 9.6719.3254.6841.8758 1.2358 1.5593 1.563.6834.3272 1.4584.41 2.1955.2347.7617-.1737 1.4398-.6053 1.9195-1.2216.4798-.6164.7316-1.3796.7128-2.1603z"/><path d="m79.996 3.66858c-.0434.66703-.5004 1.00055-1.0175 1.31405-5.428 3.24844-10.852 6.50297-16.2722 9.76367-.7339.4419-1.7815.7554-2.0884 1.4074-.3186.6804.5004 1.5525.7589 2.3646.2169.6854.5272 1.3341.7607 2.0228.2852.8338 0 1.5008-.7223 1.7843s-1.3845-.04-1.7164-.8621c-.4354-1.079-.8624-2.1679-1.2494-3.2601-.2019-.5687-.4004-.7555-.9742-.3519-.7473.5253-1.558.9605-2.3487 1.4241-.9174.5386-1.6681.4169-2.0884-.3185-.397-.7054-.1435-1.3841.744-1.916 7.3507-4.4102 14.703-8.81817 22.057-13.2239.7373-.44191 1.4579-.91717 2.2203-1.31405.2001-.11328.4268-.17135.6567-.16827.23.00307.455.06719.652.18578.1971.11859.359.2874.4694.48913.1103.20174.165.42917.1585.65899z"/><path d="m6.85216 44.314c-.60217-.0483-1.06257-.3452-1.21603-1.0005-.16681-.7171.15513-1.3191.9041-1.5525 1.42621-.4469 2.86744-.8438 4.30537-1.2574.8507-.2451 1.6997-.5002 2.5588-.7104.7523-.1817 1.3678.1801 1.5697.8538.2018.6737-.0901 1.3858-.8074 1.6042-2.3353.7054-4.67896 1.3625-7.01929 2.0345-.09733.0185-.19617.028-.29525.0283z"/><path d="m16.3469 45.6231c-.0267.6253-.3336 1.0505-.9341 1.2256-2.2569.6671-4.5039 1.3341-6.77745 1.9561-.81903.2251-1.46792-.1484-1.66809-.8338-.21852-.7504.12844-1.4074.96415-1.6592 2.22519-.667 4.45379-1.3341 6.69399-1.9444.9592-.2568 1.7365.3518 1.7215 1.2557z"/></g></svg>