<svg fill="none" height="80" viewBox="0 0 80 80" width="80"><g fill="#279fe3"><path d="m34.4023 76.3851c1.9734-.6739 3.8292-1.6528 5.4999-2.9011 3.7918-2.8046 6.6933-6.2816 8.0137-10.9035.6558-2.2347.6475-4.612-.0237-6.8422-.193-.6503-.386-.7604-1.0157-.4081-4.5651 2.5785-9.3586 4.7295-14.3194 6.4255-.8955.3015-1.5337.144-2.2006-.525-3.872-3.91-7.7604-7.8024-11.6651-11.6774-.6517-.6453-.7651-1.2872-.4858-2.134 1.6369-4.9724 3.8477-9.6857 6.348-14.2703.4689-.8587.479-.8655-.4808-1.1381-3.7021-1.0501-7.1537-.288-10.4107 1.5547-4.557 2.5794-7.75808 6.3781-9.80129 11.1778-.08295.1914-.24545.3879-.11511.7317.34872-.2524.67712-.4912 1.00552-.7215 2.96748-2.0713 6.15498-3.5312 9.85378-3.6057.6771-.0136 1.2374.1778 1.5134.8383.0842.1901.1201.3981.1047.6055-.0154.2073-.0817.4077-.193.5832-.1114.1756-.2643.321-.4453.4232-.181.1023-.3844.1583-.5921.163-5.17155.1575-8.97188 2.9859-12.48613 6.3731-.52477.5081-1.0817.8553-1.806213.4556-.7245181-.3997-.7651452-1.0162-.6534205-1.7546 1.3542435-8.9253 8.5215435-17.2393 16.7993635-19.4189 2.9674-.7825 5.9248-.7164 8.811.3641.5738.2151.8108.0897 1.1172-.4133 4.337-7.0894 9.5914-13.3795 16.1967-18.4823 6.8812-5.31797 14.5344-8.9135 23.1507-10.315814 3.8935-.6317162 7.7971-.785835 11.7125-.215088 1.1748.169361 1.5015.4505 1.7013 1.624172.8904 5.23326.435 10.40553-.8109 15.52193-2.0313 8.3732-6.2159 15.6083-11.8174 22.0813-4.6789 5.4077-10.1924 9.8077-16.2593 13.5387-.5621.3387-.6924.608-.4588 1.2516 1.4355 3.9512 1.1274 7.877-.6856 11.5877-3.675 7.5145-9.6489 12.1838-17.8793 13.8876-.8075.1693-1.7487.4047-2.2599-.5792-.5112-.984.2235-1.5582.8126-2.1729 2.4054-2.5083 4.4503-5.2502 5.4778-8.6374.3028-1.0294.4735-2.093.5079-3.1654.0423-1.0026.5823-1.6022 1.3881-1.5564.8058.0457 1.2984.6893 1.2611 1.6936-.1168 3.0959-1.1426 5.9005-2.7762 8.5002-.4841.7757-1.014 1.5276-1.6335 2.4557zm40.5205-56.3057.3148-.2219c.7766-2.3547 1.3342-4.7761 1.6658-7.2334.4328-2.9633.5067-5.96802.22-8.94903-.0525-.50809-.1947-.78076-.799-.84681-3.3748-.31552-6.7768-.17596-10.1145.41494-8.5063 1.4565-15.9715 5.16381-22.653 10.563-6.4326 5.1994-11.4162 11.5945-15.5534 18.6958-2.7454 4.6661-5.0584 9.5738-6.91 14.6616-.1439.3963-.2962.7384.11 1.1415 3.5075 3.4753 7.0003 6.9658 10.4784 10.4716.215.2151.3979.3268.733.2066 1.2679-.4556 2.5392-.9061 3.7631-1.4667-.0728-.3709-.3589-.5368-.5688-.7519-3.3494-3.4324-6.7034-6.862-10.062-10.2887-.1886-.1702-.3588-.3598-.5078-.5657-.3707-.5927-.3623-1.1855.1507-1.6936.5129-.5081 1.1104-.5081 1.6928-.1169.2238.1725.4302.3665.6161.5793 3.6305 3.709 7.2576 7.4231 10.8814 11.1422.4062.4183.716.4742 1.234.2304 6.0653-2.8589 11.8344-6.2088 17.0871-10.392 7.4483-5.9277 13.3206-13.1086 17.121-21.9086.3064-.7096.237-1.1228-.3166-1.6699-4.3522-4.295-8.6688-8.6442-12.9973-12.97472-.1646-.1545-.32-.31849-.4655-.49115-.4638-.59615-.4571-1.20077.0457-1.76305.474-.53179 1.2239-.55381 1.8265-.07282.1934.16538.3776.34121.5519.52671 3.9916 3.99013 7.9798 7.98313 11.9647 11.97893.2099.2151.3284.5335.4909.7943z"/><path d="m5.64671 74.3528c2.14816-.8468 4.06272-1.575 5.95529-2.3372 2.2819-.8939 4.5085-1.9232 6.6679-3.0823 2.1719-1.1856 3.2163-2.9757 3.047-5.4755-.0711-.9874.4571-1.6174 1.2866-1.636.7905-.0169 1.3153.5436 1.3694 1.5005.1863 3.3364-1.0715 5.9277-3.9831 7.6484-3.5549 2.095-7.4145 3.5362-11.24696 5.0232-1.49474.5809-3.01657 1.0924-4.51977 1.6479-.62803.232-1.21712.2693-1.7165-.254-.47398-.4996-.39611-1.0619-.18282-1.6564 1.77067-4.9572 3.60397-9.8924 5.97388-14.604 1.25775-2.4828 2.99797-4.356 5.81987-4.9775.9683-.2134 1.945-.315 2.9336-.1118.8193.1694 1.2544.7164 1.1613 1.4853-.0847.6995-.6382 1.1415-1.4457 1.1127-.5349-.0186-1.0665-.0796-1.6014.0085-1.7486.2879-3.0792 1.177-3.9577 2.7301-1.89429 3.3703-3.27053 6.9793-4.67555 10.5732-.26577.7113-.52477 1.4192-.88534 2.4049z"/><path d="m65.0064 25.7462c-.0102 2.1353-.6534 4.2195-1.8483 5.9888-1.1949 1.7692-2.8877 3.144-4.864 3.9501-1.9764.806-4.1473 1.0072-6.2381.5781-2.0907-.4292-4.0071-1.4695-5.5065-2.989-1.4993-1.5196-2.5143-3.4502-2.9163-5.5473-.4019-2.097-.1729-4.2663.6582-6.233.8312-1.9668 2.2269-3.6425 4.0106-4.8151 1.7837-1.1725 3.8751-1.7891 6.0093-1.7717 2.8523.0268 5.578 1.1818 7.5819 3.2127s3.1231 4.7726 3.1132 7.6264zm-18.9154.0085c.0061 1.6105.489 3.1832 1.3879 4.5193.899 1.3361 2.1735 2.3757 3.6626 2.9874 1.4892.6118 3.1261.7683 4.7041.4498s3.0263-1.0978 4.1619-2.2393c1.1356-1.1416 1.9075-2.5942 2.2183-4.1745.3109-1.5803.1466-3.2173-.472-4.7042s-1.6637-2.7571-3.0035-3.65c-1.3397-.893-2.9139-1.3686-4.5237-1.367-1.0726-.0016-2.1349.2093-3.1256.6206-.9908.4112-1.8903 1.0146-2.6468 1.7754-.7565.7607-1.355 1.6639-1.7608 2.6572-.4059.9933-.6112 2.0572-.604 3.1303z"/></g></svg>