<svg fill="none" viewBox="0 0 21 18" xmlns="http://www.w3.org/2000/svg"><path d="m.823578 2.12702c.023603-.1298.084052-.25007.174135-.34645.090087-.09639.205997-.16482.333907-.19713s.26241-.02714.38746.0149.23536.11917.31778.22219l.0001.00013c.0272.03381 2.50287 3.06771 6.19683 4.0598l.07871.02114v-.0815-.56962c.00786-1.18428.48564-2.31698 1.32833-3.14912.84267-.83213 1.98127-1.295602 3.16557-1.288536.7692.010694 1.5225.220696 2.1863.609486.6638.38884 1.2155.94321 1.6011 1.60897l.018.03118h.0361l2.8521.00005c.136 0 .2689.04032.382.11586.113.07554.2011.18291.2532.30853.052.12562.0656.26385.0391.39722-.0265.13336-.092.25586-.1881.35201l-2.7847 2.78462-.0176.01761-.0007.02489c-.0744 2.73793-1.1196 5.40765-2.8921 7.36675-2.0754 2.2938-4.94103 3.5075-8.2911 3.5075-3.25049 0-4.92267-1.6379-4.98617-1.7014-.087933-.0879-.150366-.1981-.180646-.3187-.030281-.1206-.027274-.2472.008699-.3662.035974-.1191.103566-.2262.195577-.3098.09201-.0837.205-.1408.32692-.1654h.00008c.40452-.0819 1.10593-.2817 1.81304-.6043.70581-.3219 1.42538-.7697 1.85754-1.3514l.04186-.0564-.06081-.0351c-.90001-.5189-1.6992-1.1957-2.35931-1.998h-.00001c-2.334917-2.83533-2.288037-6.40207-1.833192-8.90378zm0 0-.061447-.01118z" fill="#0f2830" stroke="#0f2830" stroke-width=".125"/></svg>